<?xml version="1.0" encoding="UTF-8"?>
<svg id="Layer_2" data-name="Layer 2" xmlns="http://www.w3.org/2000/svg" viewBox="0 0 877.72 724.55">
  <defs>
    <style>
         g {
      fill: #fff;
         }
      .cls-1 {
        stroke-width: 0px;
        
      }

    </style>
  </defs>
  <g id="Layer_1-2" data-name="Layer 1">
    <g>
      <path class="cls-1" d="M877.69,154.8c.11,43.44-10.25,80.94-28.63,116.4-10.04,19.36-21.96,37.51-35.77,54.39-6.19,7.57-12.98,14.57-21.22,19.98-5.67,3.73-11.7,6.5-18.66,6.75-5.47.2-10.44-1.33-14.93-4.31-6.1-4.04-10.88-9.21-14.12-15.92-11.02-22.85-24.05-44.4-41.56-62.98-19.87-21.09-43.79-34.98-72.42-40.24-15.97-2.94-32.07-2.95-48.2-1.5-37.58,3.38-73.49,14.11-109.38,24.9-27.41,8.24-54.04,18.55-79.64,31.4-33.91,17.01-64.78,38.55-93.46,63.26-38.21,32.93-73.89,68.39-106.46,106.96-34.02,40.3-63.77,83.57-90.22,129.16-19.67,33.89-37.42,68.76-53.75,104.37-1.6,3.48-2.9,7.1-4.45,10.6-3.05,6.92-6.77,13.39-12.3,18.7-3.9,3.75-8.4,6.27-13.72,7.4-8.19,1.74-14.97-1.72-17.14-9.81-1.34-5-1.82-10.4-1.65-15.59.41-12.76,4.84-24.69,8.73-36.68,11.21-34.53,25.37-67.89,40.08-101.05,14.91-33.6,30.38-66.91,47.43-99.49,29.02-55.44,61.21-108.94,98.11-159.53,29.16-39.99,60.93-77.74,96.85-111.89,26.36-25.06,55-47.32,84.42-68.59,33.98-24.57,69.47-46.72,106.92-65.66,40.76-20.62,83.05-37.13,127.81-46.73,12.6-2.7,25.42-4.47,38.19-6.29,15.67-2.24,31.48-3.18,47.29-2.67,35.49,1.15,70.19,6.53,102.99,20.95,20.34,8.95,38.2,21.29,52,39.01,12.16,15.6,19.23,33.42,22.71,52.73,2.69,14.95,4.44,30.02,4.13,41.98Z"/>
      <path class="cls-1" d="M558.16,448.59c-.83,1.57-1.85,4.09-3.37,6.25-8.67,12.26-17.47,24.42-26.23,36.62-15.83,22.06-31.75,44.07-47.43,66.23-3.75,5.3-6.86,6.7-13.05,1.72-29.29-23.56-60.78-44.03-91.43-65.68-3-2.12-6.07-4.14-9.07-6.26-5.42-3.84-5.72-5.58-1.75-10.84,9.93-13.12,19.91-26.2,29.86-39.31,15.08-19.84,30.15-39.69,45.23-59.53.96-1.27,1.93-2.57,3.09-3.65,2.02-1.87,4.5-2.4,7.14-1.59,2.13.65,4.23,1.43,6.29,2.3,36.16,15.35,68.16,36.89,96.06,64.53,2.31,2.29,4.36,4.68,4.67,9.2Z"/>
    </g>
  </g>
</svg>