<svg xmlns="http://www.w3.org/2000/svg" viewBox="0 0 656.83 227.39"><g id="Layer_2" data-name="Layer 2"><g id="Layer_1-2" data-name="Layer 1"><path d="M118.53,180.29a.18.18,0,0,0,.06.13c.34.34,2.08.41,3.29.41,4.83,0,11.86-2.26,16.51-4.17,16.38-6.71,30.73-19.67,38-35.91.43-1,.49-1.65.88-2,.71-.71,1.79,0,5.07-.76A24.24,24.24,0,0,0,194.28,131a34.43,34.43,0,0,0,4.66-6c6.18-10,8.62-23.63,8.62-35.09,0-19-6.66-37.54-17.75-53q-2.59-3.61-5.43-7c-.59-.73-1.86-2.91-2.93-3h0c-.65,0-.71,2-.71,3.12v.75c-.16,2.77-.22,5.56-.22,8.34,0,4.59.18,9.18.49,13.74,1,14.88,3.58,29.6,9,43.68.83,2.17,1.92,3.46,2.39,3.46.15,0,.24-.12.24-.39a2.07,2.07,0,0,0-.06-.44c-.14-.65-.59-1.77-.91-2.7A90,90,0,0,1,188.55,85a166.48,166.48,0,0,1-3.78-34.58q0-4.65.3-9.25C194.31,54,202,69.86,202,86c0,10.77-3.45,24.11-11.26,31.92a23.66,23.66,0,0,1-8.86,5.67A82.18,82.18,0,0,0,183.51,107a84.63,84.63,0,0,0-8-36.37,168.58,168.58,0,0,0-8.57-15,1,1,0,0,0-.65-.34.75.75,0,0,0-.51.24c-1.05,1-6.31,19.19-6.31,39.8a95,95,0,0,0,2.76,23.84,41.6,41.6,0,0,0,5.35,12.63c.63.93,1.17,1.23,1.17,1.82,0,1.33-5.31,8.57-6.62,10.24-15.5,19.71-42.36,35.14-43.51,36.28A.22.22,0,0,0,118.53,180.29ZM166,119.7c-1.95-3.08-2.33-8.15-2.33-12.72a124,124,0,0,1,4.95-36c5.47,9.92,8.57,19.81,8.57,31.06a67.83,67.83,0,0,1-4,22.76A12.42,12.42,0,0,1,166,119.7M75.82,137.34c0-9.92-1.85-12.12-1.85-18.18,0-2.52,1.37-11.92,3.15-13.7a.94.94,0,0,1,.62-.32.54.54,0,0,1,.4.18c1.82,1.82,2.07,17.49,2.07,20.88,0,4.71-.75,10-.75,15.08a34.37,34.37,0,0,0,.67,7.17c1.67,7.8,9,11.74,16.34,11.74a20.1,20.1,0,0,0,6-.89c6.64-2.06,12.52-6.19,17.54-11.21a70.32,70.32,0,0,0,6.77-7.92,19.35,19.35,0,0,1,1.68-2.13,2.89,2.89,0,0,1,2.16-1c1.44,0,5.14,1.66,8.51,1.66a8.08,8.08,0,0,0,6-2.54,4.55,4.55,0,0,0,1.08-1.49c1.51-2.79,5-10.43,5-11.31,0,0,0-.07,0-.08a.52.52,0,0,1,.17.12,3.07,3.07,0,0,1,.45,2,42.45,42.45,0,0,1-1,6.91,77.14,77.14,0,0,1-2,8c-1.63,5.29-4.16,11.35-9.62,13.68a9,9,0,0,1-3.58.71c-5.54,0-7.18-3.61-9.26-3.61a.79.79,0,0,0-.58.22s-4.38,5.57-5.54,6.92c-6.16,7.2-14.51,16.14-24.41,17.44a22.24,22.24,0,0,1-2.7.17c-4.23,0-11.3-1.53-14.92-7.55-2.82-4.68-2.87-13.55-2.87-15.68C75.41,147.3,75.82,142.44,75.82,137.34Zm75.49-25.42c1.06,1,1.9,2,1.9,2.41a5.34,5.34,0,0,1-1.4,1.76c-1.79,1.78-4.71,4.2-5.31,4.2a9.68,9.68,0,0,1-2.66-2.18c-1.68-1.69-3.51-3.8-3.51-4.23a5.2,5.2,0,0,1,1.34-1.67c1.77-1.76,4.72-4.23,5.34-4.23a.11.11,0,0,1,.08,0C147.5,108.4,149.67,110.27,151.31,111.92ZM227.7,82.67c0,23.32-10.23,47.11-24.63,65.91a153.66,153.66,0,0,1-13.24,15C165.37,188,134.17,205.4,121.62,218a47,47,0,0,0-4.82,5.56,23.56,23.56,0,0,1-2.18,3.52,1,1,0,0,1-.64.36.84.84,0,0,1-.52-.31c-1.06-1.06-2.78-4.48-3.64-5.7a70,70,0,0,0-7.66-8.93c-9.17-9.17-21-17.58-30.76-24.56C62,181.18,51,174.61,42.82,166.42c-5.11-5.11-9.57-13.18-9.57-20.9,0-5.79,2.68-10.53,6.71-14.56a40.83,40.83,0,0,1,6-4.89,4.07,4.07,0,0,0,.63-.5,1.14,1.14,0,0,0,.4-.83,15,15,0,0,0-.66-2.14,29.61,29.61,0,0,1-1.11-7.66c0-7.15,3.24-13.21,8.36-18.33,7.69-7.69,19.06-12.79,27-16.72,0-4.26-.38-9.18-3.41-12.21a8.18,8.18,0,0,0-1-.9c-1,1-1.94,1.88-2.93,2.79C64,78,52.82,85,40.41,85c-6.77,0-13.6-2.2-18.31-6.9a23.32,23.32,0,0,1-6.51-14.6A2.29,2.29,0,0,1,16,61.94a.36.36,0,0,1,.25-.1,1.15,1.15,0,0,1,.67.39c.7.71,1.55,2.21,2.51,3.18,4.48,4.48,10.84,6.26,17.2,6.26,14.06,0,26.48-8.47,36.28-18.55A126.58,126.58,0,0,0,99.84,11.41c1.79-4.56,2.22-6.93,2.7-7.4a.26.26,0,0,1,.19-.09.41.41,0,0,1,.28.16,4.62,4.62,0,0,1,.47.62c4.75,7.4,6.08,17.71,6.08,26.58,0,1.24,0,5.29-.62,5.89a.18.18,0,0,1-.15.07.31.31,0,0,1-.22-.11,2.88,2.88,0,0,1-.51-.94c-1.74-4.34-2.65-9.12-3.7-13.66a137.32,137.32,0,0,1-10.47,21.2C91.7,47.39,89.35,51,86.81,54.39c-1.12,1.53-2.29,3-3.49,4.5-.9,1.11-1.47,1.49-1.47,2.09a3,3,0,0,0,.64,1.46c2.5,3.85,2.93,8.64,2.93,13.19,0,.84,0,1.68,0,2.49,0,1.29-.1,2.78-.1,4.33,0,3.7.4,7.69,2.73,9.74a8.88,8.88,0,0,0,5.55,2.22,5.07,5.07,0,0,0,2.47-.6c1.4-.77,2.25-3.68,3-3.68.31,0,.6.53.91,2C101.14,98,106.52,99,112,99h.9c12.89-.24,26.76-5.74,35.24-15.66a79.47,79.47,0,0,1-27.68,5.29c-.83,0-1.74,0-2.7,0-5,0-11.38-.46-13.36-5.4a10.2,10.2,0,0,1-.73-3.88c0-4.55,2.57-9.28,4.87-12.82a49,49,0,0,1,17.72-16c3-1.65,9.73-5.17,14.9-5.17,2.62,0,4.84.9,6,3.4a9.15,9.15,0,0,1,.71,3.77A28.11,28.11,0,0,1,146.58,60c-.14.46-1.73,6.59-3,6.59h-.1c-.39-.1-.51-.52-.51-1.11,0-.92.29-2.25.29-3.42a2.35,2.35,0,0,0-1-2.31,9.86,9.86,0,0,0-4.52-1,21,21,0,0,0-7.19,1.54,51,51,0,0,0-20.8,14.64c2.12,1.8,7.37,2.22,11.91,2.22,1.71,0,3.32-.06,4.62-.13a89.74,89.74,0,0,0,18-3c2.31-.61,7.34-2.54,8.11-2.77h.12c.47,0,.61.87.61,2a36.08,36.08,0,0,1-.31,3.79,34.15,34.15,0,0,1-4.67,13.78c-5.44,9-14.62,15.23-24.49,18.55a49.74,49.74,0,0,1-14.9,2.82c-5.67,0-10.8-1.76-12.36-7.49a6.56,6.56,0,0,1-5,1.9,11.26,11.26,0,0,1-6.59-2.15c-3.19-2.52-4.15-7.06-4.44-10.91-6.78,3.39-13.61,7-19.39,11.91-4.95,4.25-10.82,10.91-10.82,17.86,0,.12,0,.24,0,.36,5-2.8,12.68-6.33,14.52-12.39.15-.51.33-.71.52-.71.5,0,1,1.49,1.29,2.13A25.09,25.09,0,0,1,68,119.78c0,.51,0,1,0,1.5,0,6.4-2.8,11.51-8.09,15.38-5.81,4.25-13.22,6.58-18.15,12-1,1-1.87,1.8-1.87,2.65a2,2,0,0,0,.83,1.42c1.7,1.51,3.46,2.93,5.27,4.3,3.28,2.51,6.67,4.86,10,7.27,7,5,14,10.09,20.89,15.3,12.65,9.58,25.65,20,34.28,33.53,5.53-9.4,15.6-16.1,24.21-22.41,16.08-11.77,34.51-24.07,50.8-40.36a142.61,142.61,0,0,0,19.41-23.74c11-17,17.42-36.65,17.42-56.39C223,55.92,216.31,43,206.35,33a66.34,66.34,0,0,0-13.29-10.31A61.68,61.68,0,0,0,162.19,14,48,48,0,0,0,127.7,28a44.41,44.41,0,0,0-7.36,9.69,28.16,28.16,0,0,1-1.76,3.27.43.43,0,0,1-.29.15.41.41,0,0,1-.28-.15c-.67-.67-1.68-3.45-1.68-6.73,0-6.47,3.23-14.87,9.12-20.77C134.29,4.61,146.67.74,159,.74,176.33.74,192.3,8.22,204.1,20a69.33,69.33,0,0,1,15.17,22.8C224.51,55.67,227.7,69.06,227.7,82.67Zm-68-43.09.21.23A7.38,7.38,0,0,0,165,41.47a17.65,17.65,0,0,0,2.69-.22c1-.14,1.73-.55,2.22-.55.16,0,.2,0,.34.12a1.14,1.14,0,0,1,.19.77,6.16,6.16,0,0,1,0,.66c-.39,3.52-2.77,4.36-4.44,6-1,1-4.91,5.47-5.7,6.25,0,0-.19.12-.13.12a2.24,2.24,0,0,1-.29-.19,1.07,1.07,0,0,1-.27-.81c0-2.09,2.92-6.08,3.43-6.7a6.06,6.06,0,0,1-4-1.61,5.91,5.91,0,0,1-1.61-4.28A8.62,8.62,0,0,1,159.87,35a8.28,8.28,0,0,1,5.72-2.27,2.17,2.17,0,0,1,1.7.54,1.75,1.75,0,0,1,.46,1.3,6.28,6.28,0,0,1-1.1,3.29,1.85,1.85,0,0,1-1.43.44l-1,0A7.86,7.86,0,0,0,159.66,39.58Zm-30.77,93c-.62,0-3.61-2.5-5.36-4.26-.23-.23-1.32-1.31-1.32-1.64s1.86-2.57,3.54-4.25c.33-.33,2.16-2.16,2.63-2.16.63,0,3.62,2.51,5.38,4.27.27.27,1.33,1.32,1.33,1.69s-.83,1.35-1.89,2.41c-1.64,1.64-3.82,3.52-4.22,3.91A.12.12,0,0,1,128.89,132.59ZM95.23,125c-.62,0-3.61-2.5-5.36-4.25-.23-.23-1.31-1.32-1.31-1.64,0-.75,5.37-6.42,6.16-6.42.63,0,3.63,2.51,5.38,4.27.27.27,1.33,1.33,1.33,1.69s-.83,1.35-1.89,2.41c-1.64,1.64-3.82,3.53-4.22,3.91A.12.12,0,0,1,95.23,125Zm48-84.18c-.89,0-6.68-5.17-6.68-5.9s5.38-6.42,6.17-6.42,6.71,5.17,6.71,6c0,1-5.45,5.68-6.12,6.32A.11.11,0,0,1,143.2,40.83ZM28.36,140.77h0l-1-1.34h0l1,1.33a5.67,5.67,0,0,1,.73,3.16c0,2.54-.88,5-1.35,5a1.58,1.58,0,0,1-.86-.56,48.08,48.08,0,0,1-4.36-6.17A143.78,143.78,0,0,1,11.09,121C4.56,105.92.4,89.38.4,73.25.4,52,8.14,34.29,20.84,21.6A72.55,72.55,0,0,1,71.25.62,60.51,60.51,0,0,1,87.56,2.78c1.32.37,4.59.87,5.86,2.14A1.79,1.79,0,0,1,94,6.31c0,1.82-1.62,4.43-2.4,5.7a12.89,12.89,0,0,1-1.71,2.37,3.49,3.49,0,0,1-2.65,1.1A6.48,6.48,0,0,1,86,15.35a59.57,59.57,0,0,0-11.16-1A72.4,72.4,0,0,0,26.23,33.86,69.58,69.58,0,0,0,4.92,83.76c0,22,11,39.86,23.44,57"/><path d="M257.69,185.36c-5.29,0-8.69-2.79-8.69-7.42a12.39,12.39,0,0,1,.08-1.76l.48-.32a11.7,11.7,0,0,0,5.68,1.28c6.95,0,9.39-4.79,9.39-13.17V136.43H250v-8.78H277.5v34.88c0,14-8.53,22.83-19.81,22.83"/><path d="M288.39,151.2l-1.18-8.71a48.89,48.89,0,0,1,12.94-1.83c10.42,0,18.79,3.67,18.79,16v17.73c0,2.39.71,3.91,2.76,3.91a3.21,3.21,0,0,0,1.81-.48l.4.32c-.4,3.59-3.16,6.54-8,6.54-5.37,0-7.89-3.51-8.29-6.54h-.23c-3.87,4.14-7.58,7.18-12.71,7.18-7,0-11.14-5.59-11.14-12.53,0-8.3,6-13.18,17.45-13.18a51,51,0,0,1,6.16.41v-3.6c0-5.18-3.4-7.18-8.53-7.18a25.51,25.51,0,0,0-10.26,2m18.79,15.32A25.19,25.19,0,0,0,302,166c-5.21,0-7.34,2.08-7.34,5.11a4.33,4.33,0,0,0,4.58,4.63c3.23,0,5.6-2.23,8-4.55Z"/><path d="M386.19,184.64c-5.45,0-8.37-3.59-8.37-9.5V155.27c0-3.12-1.74-4.55-3.79-4.55-3.79,0-7.18,4.15-9.47,6.7V184H352.88V155.27c0-3.12-1.73-4.55-3.79-4.55-3.79,0-7.18,4.15-9.47,6.7V184H327.93V141.38h11.45v8.14h.24c4.58-5.19,9.31-9.42,15.79-9.42a9,9,0,0,1,6.07,2.32c2,1.83,2.77,4.39,3,7.1h.08c4.58-5.19,9.31-9.42,15.79-9.42a9,9,0,0,1,6.08,2.32c2.76,2.47,3.07,6.22,3.07,9.81V174.5c0,2.08.64,3.75,2.61,3.75a3.07,3.07,0,0,0,1.74-.47l.39.31c-.39,3.6-3.23,6.55-8.05,6.55"/><path d="M432.52,160.13l-26.67,3.76c.94,7.9,6.23,13.33,15.15,13.33,3.16,0,6.95-.56,9.55-2.64l.55.4a8.69,8.69,0,0,1,.08,1.44c0,7.34-7,8.86-12.78,8.86-13.58,0-23.76-9-23.76-23.15,0-12.93,8-22,20.84-22,10.18,0,17.28,6.47,17.28,16.76a22.38,22.38,0,0,1-.24,3.27m-18.07-13.24c-6.24,0-8.29,4.63-8.76,10.37l15.94-2.47c0-4.23-2.29-7.9-7.18-7.9"/><path d="M472.82,160.13l-26.68,3.76c.95,7.9,6.24,13.33,15.15,13.33,3.16,0,6.95-.56,9.56-2.64l.55.4a8.69,8.69,0,0,1,.08,1.44c0,7.34-7,8.86-12.79,8.86-13.58,0-23.76-9-23.76-23.15,0-12.93,8-22,20.84-22,10.18,0,17.29,6.47,17.29,16.76a22.38,22.38,0,0,1-.24,3.27m-18.08-13.24c-6.23,0-8.28,4.63-8.76,10.37l15.95-2.47c0-4.23-2.29-7.9-7.19-7.9"/><path d="M486.12,185.28c-5.44,0-8.44-3.6-8.44-9.5V124.14h11.68v51c0,2.07.63,3.75,2.6,3.75a3,3,0,0,0,1.74-.48l.39.32c-.31,3.59-3.15,6.55-8,6.55"/><path d="M281.05,104.12c-18.16,0-32.05-11.49-32.05-30.65s13.82-27.7,31.34-27.7a86.36,86.36,0,0,1,13.65,1l-1.34,9.42a35.61,35.61,0,0,0-11.21-1.68c-12.31,0-19.34,6.23-19.34,18.68,0,12.93,8.69,22.43,22.11,22.43,3.47,0,7.34-.64,10.34-2.64l.47.4a9.68,9.68,0,0,1,.08,1.52c0,7.75-8.05,9.26-14.05,9.26"/><path d="M313.41,104.36c-13.57,0-20.52-10.38-20.52-23.31,0-13.57,8.53-22.19,21.87-22.19,12.78,0,20.2,8,20.2,21,0,13.5-7.66,24.51-21.55,24.51m.4-37.76c-7.18,0-8.69,7.59-8.69,13.25s1.19,16.77,9.08,16.77c7,0,8.61-9.34,8.61-15.33,0-5.83-1.43-14.69-9-14.69"/><path d="M398.42,103.48c-5.44,0-8.36-3.59-8.36-9.5V74.11c0-3.12-1.74-4.55-3.79-4.55-3.79,0-7.18,4.15-9.47,6.7v26.58H365.11V74.11c0-3.12-1.73-4.55-3.78-4.55-3.79,0-7.18,4.15-9.47,6.7v26.58H340.17V60.22h11.45v8.14h.24c4.57-5.19,9.31-9.42,15.78-9.42a9,9,0,0,1,6.08,2.32c2,1.83,2.76,4.39,3,7.1h.08c4.58-5.19,9.31-9.42,15.79-9.42a9,9,0,0,1,6.07,2.32c2.77,2.47,3.08,6.22,3.08,9.81V93.34c0,2.08.63,3.76,2.6,3.76a3,3,0,0,0,1.74-.48l.39.32c-.39,3.59-3.23,6.54-8.05,6.54"/><path d="M469.39,103.48c-5.45,0-8.37-3.59-8.37-9.5V74.11c0-3.12-1.74-4.55-3.79-4.55-3.79,0-7.18,4.15-9.47,6.7v26.58H436.08V74.11c0-3.12-1.74-4.55-3.79-4.55-3.79,0-7.18,4.15-9.47,6.7v26.58H411.13V60.22h11.45v8.14h.24c4.57-5.19,9.31-9.42,15.78-9.42a9,9,0,0,1,6.08,2.32c2.05,1.83,2.76,4.39,3,7.1h.08c4.58-5.19,9.31-9.42,15.79-9.42a9,9,0,0,1,6.08,2.32c2.76,2.47,3.07,6.22,3.07,9.81V93.34c0,2.08.64,3.76,2.61,3.76a3,3,0,0,0,1.74-.48l.39.32c-.39,3.59-3.24,6.54-8.05,6.54"/><path d="M514.85,103.48c-6.07,0-8.28-4.31-8.28-7.42V94.62h-.24c-4.5,5.19-9.23,9.5-15.71,9.5a9,9,0,0,1-6.08-2.32c-2.76-2.47-3.15-6.22-3.15-9.81V60.22h11.76V89c0,3.12,1.74,4.56,3.79,4.56,3.71,0,7.18-4.16,9.39-6.71V60.22h11.76V93.34c0,2.08.63,3.76,2.61,3.76a3.12,3.12,0,0,0,1.73-.48l.39.32c-.39,3.59-3.15,6.54-8,6.54"/><path d="M562.85,103.48c-5.45,0-8.45-3.59-8.45-9.5V74.11c0-3.12-1.89-4.55-4.18-4.55-4.19,0-7.9,4.15-10.34,6.7v26.58H528.12V60.22h11.52v8.14h.24c4.73-5.19,9.79-9.42,16.57-9.42a10.07,10.07,0,0,1,6.48,2.32c2.92,2.47,3.23,6.22,3.23,9.81V93.34c0,2.08.63,3.76,2.53,3.76a2.94,2.94,0,0,0,1.73-.48l.4.32c-.32,3.59-3.16,6.54-8,6.54"/><path d="M581.87,54.55c-3.94,0-6.55-2.39-6.55-5.91,0-3.27,2.29-6,6.55-6,4,0,6.4,2.47,6.4,6s-2.53,5.91-6.4,5.91m2.53,48.93c-5.53,0-8.45-3.59-8.45-9.5V60.22h11.68V93.34c0,2.08.64,3.76,2.61,3.76a3.12,3.12,0,0,0,1.73-.48l.4.32c-.4,3.59-3.16,6.54-8,6.54"/><path d="M656.83,60.22V96.86c0,13.17-9.47,22.59-22.34,22.59-6.15,0-10.18-3-10.18-8.14a8.69,8.69,0,0,1,.08-1.44l.55-.4c1.74,1.52,4.74,2.16,7.58,2.16,8.29,0,12.87-3.91,12.87-12.53V93.35h-.24c-4,4.63-8.76,9.5-15.23,9.5a8.43,8.43,0,0,1-5.84-2.32C621.39,98,621,94.23,621,90.71V68.13H610V93.35c0,2.07.63,3.75,2.53,3.75a3,3,0,0,0,1.73-.48l.39.32c-.31,3.59-3.15,6.55-8,6.55-5.44,0-8.44-3.6-8.44-9.5V68.13h-5.92l-.32-.57c.4-3.51,2.69-5.19,5.69-7.34L609,51.84h.86v8.38h22.79V87.68c0,2.23,1,4.55,3.63,4.55,3.39,0,6.63-4.23,8.84-6.71V60.22Z"/><path d="M8.66,15.29H6.76v-11a20.12,20.12,0,0,1,2.75-.2C12.4,4.09,14,5.37,14,7.69A3.35,3.35,0,0,1,11.79,11l3.32,4.34H12.83L9.9,11.38H8.66Zm0-5.47h.92c1.51,0,2.47-.65,2.47-2.08,0-1.26-.87-2-2.54-2-.22,0-.65,0-.85,0Z"/><path d="M9.92,19.84a9.92,9.92,0,1,1,9.92-9.92A9.93,9.93,0,0,1,9.92,19.84Zm0-18.19a8.27,8.27,0,1,0,8.27,8.27A8.28,8.28,0,0,0,9.92,1.65Z"/></g></g></svg>