<?xml version="1.0" encoding="UTF-8"?>
<svg id="Layer_2" data-name="Layer 2" xmlns="http://www.w3.org/2000/svg" viewBox="0 0 5433.08 1106.79">
  <defs>
    <style>
      .cls-1 {
        stroke-width: 0px;
      }
    </style>
  </defs>
  <g id="Layer_1-2" data-name="Layer 1">
    <g>
      <path class="cls-1" d="M1015.88,357.4c-3.21-1.23-6.8-1.13-9.94.31-3.09,1.56-5.36,4.39-6.21,7.72-1.72,5.83-6.05,19.89-6.05,19.89l12.97,4.02s4.02-13.3,6.02-19.61l9.92,3.64c1.16-3.31,1.06-6.92-.28-10.16-1.25-2.74-3.59-4.82-6.43-5.81h0ZM1011.06,370.16c-.59-.31-1.06-.83-1.28-1.46l2.6.97c-.35.33-.83.52-1.32.5ZM1149.27,709.51c-3.57-10.61-13.23-18.07-24.43-18.8l-5.41-.33c-9.8.33-19.56-1.61-28.49-5.65l-7.63,11.29c1.72,1.25,41.79,30.83,52.16,37.98,1.37.97,2.86,1.8,4.35,2.65.92.5,1.87,1.02,2.72,1.58,3.33,2.2,7.77,1.84,10.7-.83,2.86-2.43,3.83-6.45,2.36-9.9l-6.33-18h0ZM1117.07,703.92l1.63.12,5.22.31c5.74.35,10.7,4.2,12.47,9.66l1.91,5.34c-5.41-3.92-13.46-9.71-21.19-15.43h-.05ZM677.44,62.67l-8.03,1.23c-4.04.64-7.04,4.13-7.04,8.22,0,3.85,2.67,7.23,6.43,8.1l11.01,2.43,1.49-6.78,5.79-.85-1.84-13.54c-1.89.31-4.72.73-7.8,1.18h0ZM1327.92,965.13l-3.4-2.55-20.1-6.85c.21-1.42.33-2.86.31-4.3-.12-6.14-2.69-11.98-7.11-16.23-6.52-6.24-16.16-8.08-24.52-4.65l-22.32-21.45c9.59-34.54,6.69-71.39-8.2-103.98-.19-.47-.28-.92-.47-1.37h-.17c-4.3-9.83-9.31-19.32-14.95-28.44,3.31-28.89-5.72-57.87-24.85-79.75-2.81-3.21-7.39-4.28-11.34-2.62-1.7.69-3.17,1.84-4.25,3.35-3.07-3.69-6.57-7.02-10.42-9.87l-10.06-36.24c-2.2-7.84-3.71-15.85-4.51-23.95-1.56-10.11-5.95-19.58-12.66-27.33-23.67-29.31-44.72-60.66-62.91-93.69-9.17-19.44-27.05-33.43-48.12-37.63l-81.35-6.78c-.12-20.65-4.72-41.03-13.54-59.74,1.2-.87,2.31-1.87,3.38-2.91,1.09,2.65,2.22,5.39,3.35,8.15l4.02,9.64c3.19,7.63,11.67,11.76,19.65,9.54,3.05-.85,5.79-2.57,7.87-4.96,6,5.29,13.68,8.29,21.69,8.41h1.35c9.19.17,17.57-5.31,21.09-13.8,3.83-7.13,9.5-20.55,14.08-31.35l3.14-7.42c3.8-10.04,5.29-20.81,4.35-31.49-1.23-13.42,2.93-26.81,11.57-37.16,8.91-9.19,13.44-21.78,12.45-34.54.85-4.8,2.5-9.43,4.87-13.68,3.52-7.35,6.57-14.93,9.19-22.65,4.75-14.83,5.53-30.66,2.27-45.9l8.62-6.02c3.26-1.87,5.27-5.34,5.27-9.09,0-4.84-3.35-9.09-8.08-10.2l-16.49-3.8c-17.17-40.42-80.62-46.28-83.41-46.54-53.91-22.87-135.43-12.28-146.13-10.77-63.76-14.65-116.22,36.64-119.41,39.9-14.27,9.94-26.98,21.97-37.72,35.62-.76-.21-1.56-.35-2.36-.43-15.69-3.24-29.91-11.48-40.49-23.48-1.65-1.98-3.57-3.73-5.65-5.2l1.72-13.25c7.02,3.4,14.27,6.26,21.71,8.57,4.25,1.63,9.02.99,12.71-1.68,4.13-4.42,5.88-10.56,4.7-16.49v-.19c3.54-.73,6.61-2.98,8.36-6.14.9-1.58,1.39-3.33,1.49-5.13,3.35,1.23,7.06.83,10.06-1.09,3.31-2.46,4.98-6.57,4.32-10.63-.5-7.56-1.65-27.05-1.65-27.05v-.24c.17-.38.35-.73.57-1.09,6.4-8.53,9.5-19.11,8.69-29.76-.02-.99-.14-1.98-.38-2.95l-.12-.45c-.09-.59-.24-1.2-.43-1.77-.45-1.8-1.06-3.54-1.82-5.24-9.9-21.9-42.4-33.47-61.94-35.91-28.98-2.91-55.58,17.53-60.19,46.3-1.54,6.21-4.8,11.88-9.45,16.32-15.64,5.43-28.56,16.77-36,31.58-.45.76-4.94,7.3-17.41,4.39-29.24-7.04-55.75-22.56-76.2-44.62C393.55-.85,351.32-.49,281.59.12c-7.63,0-15.61.12-23.98.12-16.56,0-30.19,13.63-30.19,30.19v28.18l-13.51,1.2c-5.98.78-11.43,3.8-15.26,8.46-4.11,5.41-6.09,12.12-5.62,18.87h-.05c.02.71.09,1.42.21,2.1v1.3c3.92,45.76,25.8,88.16,60.8,117.87.54.54,13.3,13.25,26.74,24.33l40.11,31.56c5.5,4.39,12.33,6.76,19.37,6.71.9,0,3.28.24,6.52.24h1.23c5.03.33,9.24,1.23,10.06,3.71,6.28,17.91,21.09,31.54,39.45,36.35,12.07,2.65,27.31,5.74,37.72,7.84-7.87,12.76-12.09,27.4-12.21,42.38-32.2-.26-161.22,4.04-211.11,97.32-2.01,3.59-3.64,7.23-5.24,10.82-19.63-.83-38.88-5.62-56.6-14.08-8.62-3.57-17.53-7.25-28.68-10.7-20.55-7.54-43.02-8.15-63.92-1.7-18.14,7.09-33.73,19.49-44.72,35.57-13.04,18.97-14.81,43.56-4.65,64.2l23.69,48.17c8.43,17.1,7.2,37.46-3.24,53.43-1.42,2.03-2.76,4.04-4.28,6.26l-12.5,17.5c-14.15,19.75-15.64,45.99-3.83,67.2l11.36,20.5c7.18,12.9,8.65,28.23,4.02,42.26l-1.82,5.53c-1.89,5.86-2.17,12.12-.83,18.12.78,4.98,4.63,8.95,9.57,9.9.78.14,1.56.24,2.34.24,4.2,0,8.1-2.22,10.23-5.83l19.89-33.12c8.24-16.63,12.87-34.8,13.63-53.34.92-7.77,1.84-15.83,3.31-23.39,1.7-10.18,5.2-19.98,10.3-28.96,6.85-10.96,15.14-20.98,24.66-29.72,34.02-30.19,14.29-98.34,14.08-99-7.3-24.87-7.42-34.46-.71-42.59,3.71-3.28,8.81-4.54,13.61-3.28,17.2,3.09,34.51,5.31,51.94,6.66-2.57,53.46,12.78,106.25,43.58,150,3.45,4.56,4.89,10.35,4.02,15.99-3.66,10.28-11.6,18.45-21.76,22.44l-59.34,27.78c-8.83,4.06-15.02,12.35-16.37,21.97-.12.69-15.52,65.93-29.24,108.66-2.79,8.69-5.53,16.35-8.06,23.29-9.76,27.31-16.23,45.31-4.42,70.77l19.87,36.47c1.3,2.36,1.51,5.17.61,7.72l-9.4,26.55c-1.13,3.24-1.56,6.66-1.23,10.06l3.9,40.49c.69,7.63,7.16,13.51,14.81,13.51h114.83c3.69,0,7.13-1.89,9.12-5.03,2.03-3.17,2.29-7.16.66-10.56l-34.94-72.21-8.6-17.32-6.64-13.42c-.66-15.57-2.36-145.25,117.71-192.99,28.94-11.5,51.26-19.75,69.19-26.36,60.14-22.13,69.78-25.8,98.6-68.88,13.39-1.11,22.39-1.51,22.68-1.51,10.06-.43,19.75-.76,29.22-1.09,41.88-.4,83.69-3.71,125.1-9.92l29.43,10.28c1.04.33,2.13.5,3.21.5,4.72.05,8.93-3.12,10.2-7.65,1.28.09,2.53.35,3.83.35,1.89,0,3.8-.09,5.69-.31l36.99-3.8c6.47-.69,11.43-6.21,11.43-12.71,0-5.69-3.8-10.72-9.26-12.28l-3.73-1.06c35.08-16.04,68.29-35.88,99.07-59.15,45.17,5.98,91.06,3.69,135.43-6.8,2.69-.54,5.5-.24,8.03.9,1.44.85,2.69,1.63,3.8,2.36l23.98,17.46c1.54,1.13,2.83,2.55,3.85,4.16,7.54,11.95,15.85,23.39,24.92,34.23l-13.94-4.56c-6.02-2.06-12.38-2.93-18.73-2.62-6.5.47-12.33,4.32-15.26,10.16l-40.02-39.38c-2.5-2.41-5.83-3.73-9.31-3.73-3.73,0-7.3,1.54-9.85,4.25l-9.33,9.92c-5.08,5.46-4.87,14.1.52,19.28l52.32,49.82-1.2,2.29c-9.33,22.49,24.4,50.46,28.18,53.41l90.76,78.85c22.54,19.06,25.51,33.33,11.67,56.5-5.67,9.52-8.03,10.06-8.57,10.06-4.7,0-17.15-17.2-30.33-35.41l-8.81-12.07c-32.31-44.27-96.94-30.8-99.12-30.28-8.69,1.11-213.31,27.64-249.09,33.8-24.73,3.73-47.46,15.8-64.39,34.2l-50.31,61.13c-11.17-24.4-35.67-40.09-62.5-40.02-23.36-.02-45.43,10.98-59.48,29.65-17.95-19.98-48.19-23.81-70.56-8.91-15.05,7.16-26.27,20.53-30.71,36.59-1.35,6.5-1.2,13.2.43,19.63-6.21-2.53-12.8-3.92-19.49-4.18-13.25-.78-25.75,6.54-31.54,18.5-8.46,16.09-19.23,33.4-19.65,34.2-.69,1.35-1.75,2.43-3.07,3.14-.19,0-.66.17-1.75-.4-2.15-1.16-1.2-3.87-.38-5.5.12-.24,11.57-23.34,16.94-32.53,5.46-7.98,3.47-19.06-4.42-24.68-3.57-2.55-8.03-3.54-12.35-2.79-4.56,1.06-8.57,3.78-11.29,7.58-5.6,7.8-10.77,15.9-15.52,24.24-7.16-3.68-15.07-5.67-23.13-5.79-6.57-.99-13.18,1.39-17.65,6.31-2.31,2.76-3.57,6.26-3.57,9.87,0,7.37,5.24,13.75,12.47,15.14l9.66,2.72c11.13,2.86,11.39,19.7,11.39,19.87l.09,16.63c-.71,9.45,2.57,18.8,9.07,25.72,7.25,7.84,17.46,12.31,28.16,12.33,15.17,0,28.87-9.26,34.51-23.31l12.71-31.39.33-.76c.87-1.39,2.39-2.22,4.02-2.22s3.17.83,4.04,2.22l16.96,31.3c9.71,15,26.39,24.07,44.24,24.07,10.25,0,20.29-3,28.89-8.6,24.26-16.06,31.16-49.16,15.35-73.61l-6.33-9.69c-.24-.4-.35-.85-.35-1.3,0-.9.5-1.75,1.28-2.2.4-.21.83-.33,1.25-.33,1.04,0,1.98.61,2.41,1.56l5.53,8.48c2.93,4.25,6.07,8.36,9.43,12.31,15.28,19.18,29.57,33.69,30.19,34.39,43.94,44.5,114.71,13.58,166.28-11.72-1.61,4.25-2.43,8.72-2.43,13.25,0,20.41,16.72,37.23,37.13,37.35h140.76c5.06-.02,9.21-4.2,9.19-9.26-.17-6.8-5.03-12.66-11.72-14.08-18.05-5.6-34.96-14.34-49.96-25.84-6.87-5.55-15.07-9.26-23.79-10.77,3.87-3.71,7.39-7.82,10.46-12.24,5.76.9,11.46,2.2,17.06,3.9,24.52,9.12,50.41,14.01,76.56,14.46,14.13.12,28.18-2.03,41.65-6.31.38,7.02,2.91,13.77,7.23,19.32l18.54,24.5c6.28,10.49,17.81,16.72,30.02,16.28h132.8c5.06-.02,9.21-4.18,9.21-9.26-.26-6.9-5.29-12.76-12.07-14.08-19.3-4.89-37.49-13.46-53.55-25.23-13.09-9.45-29.41-13.3-45.35-10.65l15.78-28.54c4.84,1.18,9.61,2.67,14.29,4.44,21.54,7.89,44.29,11.93,67.23,11.91,41.46,2.34,81.5-15.83,107.03-48.57,5.69-7.96,10.98-16.18,15.83-24.68l10.91,10.49c-.94,2.62-1.39,5.41-1.35,8.2.26,12.69,10.91,22.89,23.57,22.63,1.44-.05,2.88-.21,4.28-.52l7.75,19.87,2.67,3.26,118.23,75.71,9.28-9.69-80.67-115.28h0ZM1036.5,481.23c16.58,3.83,30.5,15.17,37.58,30.64,18.52,33.69,39.99,65.65,64.13,95.53,5.15,5.65,8.55,12.69,9.8,20.22.9,8.91,2.55,17.69,4.96,26.31l6.38,22.91c-4.54-1.98-9.26-3.57-14.08-4.7l-16.39-36.61c-2.79-6.24-6.57-11.98-11.22-16.96l-18-22.23c-11.88-14.48-22.89-29.65-32.98-45.43-13.77-17.88-32.72-31.11-54.24-37.89-.47-.14-32.72-10.32-61.02-19.49,1.91-6.24,3.26-12.64,4.04-19.11l81.02,6.8h0ZM714.53,599.2l-32.2-10.96,16.42-38.98c9.38-22.04,24.71-58.09,28.72-68.41l.21-.47,19.16-45.57,7.23,7.68-39.54,156.71ZM639.74,653.91c-.09.35-.17.71-.21,1.06-2.55,0-4.82,0-7.04.12-2.24.12-4.23.12-6.66.12-2.57.33-5.13-.54-6.94-2.36-1.8-3.99-2.06-8.48-.73-12.61l16.09-55.3,12.28-110.22,1.35-11.48,65.86,15.76-27.07,64.39c-4.44,10.39-7.61,17.79-7.72,18.09h.12l-11.31,26.93-27.99,65.5h0ZM605.7,463.92l1.09,6.8c.02.14.05.28.05.45,0,.87-.73,1.63-1.63,1.63-.85,0-1.58-.69-1.63-1.54l-1.09-6.8c-.61-3.99-2.79-7.56-6.02-9.94-3.26-2.39-7.35-3.38-11.34-2.69-8.24,1.37-13.89,9.28-12.54,17.53l1.11,6.8c.02.09.02.19.02.26,0,.8-.59,1.49-1.37,1.63h-.26c-.78,0-1.46-.57-1.58-1.35l-1.11-6.8c-1.06-7.46-7.51-13.06-15.05-13.06-8.34,0-15.19,6.85-15.19,15.19,0,.92.09,1.84.26,2.76l1.11,6.8c.07.45-.05.87-.28,1.23-.28.38-.71.61-1.18.66-.87.14-1.7-.47-1.84-1.35l-2.5-15.24c-2.24-12.9-6.12-25.46-11.53-37.39,9.92-8.03,21.87-13.13,34.51-14.76,6.02-.99,11.98-2.34,17.86-4.04l58.35,29.08c1.51.76,2.39,2.36,2.22,4.04l-1.42,12.52c-2.06-6.17-7.84-10.35-14.34-10.35-4.89,0-9.47,2.36-12.31,6.33-2.34,3.35-3.24,7.51-2.48,11.53l.12.07h0ZM207.39,517.14c2.36-1.46,6.35-3.9,13.28-7.91,18.52-10.56,37.72-19.84,57.47-27.83,31.56-12.8,63.94-23.43,96.94-31.82,43.13-10.89,86.98-18.83,131.2-23.76,2.46,4.32,4.63,8.81,6.52,13.42-48,5.6-95.53,14.62-142.23,27.02-34.2,9.12-67.63,20.95-99.94,35.41-22.61,10.04-44.17,22.28-64.39,36.54-.09-7.04.31-14.08,1.16-21.07h0ZM436.52,362.51c-.78-15.59,5.08-30.83,16.11-41.88l3.14-2.01c7.3-4.09,16.13-4.44,23.76-.94,10.06,4.18,27.45,12.87,42,20.24-3.33,1.09-6.5,2.67-9.35,4.7-13.04,11.03-20.86,27.07-21.52,44.15-15.66-12.61-34.3-20.98-54.14-24.26h0ZM452.63,183.07c-.83-1.42-.64-3.24.5-4.44l30.05-31.65,21.28-13.37c6.71,1.72,13.54,2.83,20.46,3.35.12,0,12.9.31,15.33,7.87,3.02,10.04,8.22,19.3,15.21,27.12l-8.72,14.76c-8.34-5.43-18.05-8.39-27.99-8.53-8.74.31-17.15-3.31-22.96-9.83l-5.53,4.04-5.6,3.87c7.13,8.67,17.48,14.1,28.68,15.09-1.32.59-2.62,1.28-3.87,2.01-14.03,9.73-23.6,24.66-26.62,41.46l-30.21-51.76h0ZM451.36,102.76l10.65-10.18,30.57,32.41-12.64,7.91-28.54-29.98-.05-.17h0ZM550.64,113.48c15.8-1.04,30.87,7.02,38.79,20.74l2.17,2.91c6.94,10.65,16.7,19.18,28.18,24.61-.47,3.31-.57,6.64-.31,9.94l.33,2.67c-46.51,8.46-60.21-13.37-66.78-33.78-4.77-10.94-15.83-17.83-27.73-17.29-6.31-.47-12.57-1.54-18.69-3.14l-20.39-21.66c19.18,12,41.83,17.27,64.35,14.98l.07.02h0ZM698.82,223.35c11.2-9.57,25.18-15.31,39.87-16.39,2.57-.33,5.1-.73,7.58-1.18-19.56,15.19-35.55,34.49-46.84,56.5-3.47-.47-6.59-.87-9.17-1.16,4.02-12.31,6.85-24.97,8.48-37.8l.07.02h0ZM684.98,274.3c4.02.38,9.78,1.02,17.53,2.2,15.69,2.43,31.2,5.67,46.54,9.76,24.31,6.4,48.05,14.72,71.03,24.85,28.11,12.33,54.85,27.54,79.82,45.38,5.65,4.02,10.56,9.02,14.48,14.74l11.74-6.73-8.06-17.24-.09-.26c-1.11-2.36-1.11-5.13,0-7.49,1.11-2.34,1.56-3.31,5.74-4.65l38.15-10.56c2.06-.87,4.25-1.25,6.47-1.16,9.5.24,17.17,8.1,17.17,17.6,0,4.58-1.77,8.98-4.96,12.26-5.98,5.98-15.47,6.9-22.49,2.15-2.95-2.13-5.22-5.1-6.5-8.55-1.68-3.99-6.31-5.98-10.35-4.37-4.25,1.39-6.64,5.98-5.39,10.25l5.43,19.63c1.65,4.87.8,10.23-2.22,14.34-1.96,2.53-4.56,4.49-7.54,5.67-8.01,3.38-17.36.52-22.13-6.71-7.28-11.34-16.98-20.88-28.44-27.97-25.61-15.94-52.54-29.67-80.48-41.01-21.92-8.91-44.43-16.25-67.39-21.97-19.98-4.94-39.17-8.83-53.08-11.43,1.8-2.81,3.45-5.74,4.94-8.74l.07.02h0ZM673.47,295.63c13.54,2.46,34.39,6.57,56.6,12.07,22.32,5.55,44.22,12.69,65.53,21.35,27.21,11.06,53.41,24.4,78.33,39.94,2.53,1.61,4.98,3.33,7.32,5.2-22.91-1.16-45.85-.73-68.69,1.28-20.88,1.65-49.32,4.54-58.56,5.67l-80.53-85.51h0ZM566.16,180.59c10.63,6.4,22.87,9.61,35.27,9.28,6.76-.09,13.49-.78,20.13-2.01l8.06,64.77c-15.38-1.58-18.85-2.15-19.54-2.29-1.32-.21-2.53-.8-3.52-1.68l-49.68-52.58,9.28-15.5h0ZM516.39,204.99c8.27-4.49,18.02-5.31,26.93-2.27.45.07.9.14,1.35.17l51.83,54.8c2.86,3.14,6.69,5.24,10.87,6.02.94.21,3.9.8,24.14,2.86.17.87.31,1.75.57,2.6-2.55,1.18-4.68,3.14-6.05,5.6-2.53,5.15-2.17,11.27.92,16.11.92,1.72,5.13,10.23,9.26,18.66-1.06-.33-2.01-.61-2.43-.71l-12.83-2.6c-5.83-1.2-10.96-4.7-14.22-9.71l-2.65-4.16c-4.35-6.54-10.11-12.05-16.82-16.11-6.73-4.06-45.76-22.84-60.14-29.69-9.97-4.25-20.5-6.99-31.28-8.17,2.17-13.39,9.52-25.42,20.48-33.43l.07.02h0ZM521.37,258.83c14.31,6.83,59.62,29.46,59.65,29.46,4.7,2.98,8.74,6.92,11.81,11.55l2.57,4.02c5.24,8.1,13.51,13.75,22.96,15.69l12.69,2.57c1.42.38,8.57,3.07,14.95,5.57l14.08,14.98c-16.91,5.53-31.98,15.64-43.49,29.2-15.24,15.26-34.91,25.25-56.22,28.56,2.65-8.53,3.8-12.4,4.56-14.93,1.02-3.38,1.3-4.35,3.57-11.31,2.81-7.28,2.5-15.43-.85-22.46-3.35-6.26-8.88-11.06-15.54-13.49-3.59-1.91-33.07-17.34-54.33-27.38l11.34-56.2c4.18.99,8.27,2.36,12.17,4.16l.09.02h0ZM728.23,442.59c-2.39,6.52-5.2,13.32-8.06,19.98-.5,1.2-.94,2.34-1.44,3.54l-69.52-16.58.5-4.04c.85-7.39-3.02-14.6-9.69-17.95l-46.39-23.17c13.18-5.06,24.83-13.44,33.83-24.33,11.46-12.83,26.39-22.02,42.99-26.46l53.46,56.79c6.97,9.24,8.62,21.5,4.32,32.22h0ZM503.63,398.93c-1.28-16.82,4.77-33.38,16.61-45.4,8.15-4.98,18.14-5.95,27.07-2.6v-.17.17c3.47,1.32,6.35,3.76,8.22,6.94,1.63,3.85,1.63,8.22,0,12.07-2.34,7.16-2.65,8.06-3.69,11.67-.94,3.12-2.5,8.34-6.71,21.9-10.32,2.36-20.01,6.92-28.44,13.32-3.78-6.38-8.15-12.38-13.06-17.91h0ZM733.81,401.11l-52.44-55.7-25.87-27.47c-2.5-5.06-14.72-30.19-16.54-33.57-.33-.61-.61-1.25-.83-1.91,4.72,4.46,9.87,8.46,15.4,11.91l159.09,169.02-10.68,10.18-68.15-72.45h0ZM765.6,393.57c12.35-1.32,31.77-3.21,47.95-4.51,27.24-2.62,54.64-2.62,81.87,0,.85,1.18,1.77,2.34,2.57,3.57,2.01,3.05,4.56,5.72,7.49,7.89-22.44-1.87-45-2.1-67.49-.71-16.89,1.32-46.61,5.27-59.67,7.2l-12.73-13.44h0ZM969.72,412.3c-1.44.43-2.95-.31-3.52-1.68l-4.04-9.57c-2.6-6.35-5.22-12.69-7.39-17.53,1.04-4.89.9-9.94-.4-14.79,2.83,1.37,5.86,2.29,8.98,2.72l8.29,37.51c.35,1.44-.5,2.91-1.91,3.33h0ZM1072.05,232.59c-1.89,5.72-4.09,11.34-6.59,16.84-3.94-13.13-5.39-26.88-4.23-40.56l13.82-9.52c1.51,11.17.47,22.51-3,33.24ZM1032.77,211.99c-12.94,7.37-27.8,10.7-42.66,9.5l-1.06,13.63c2.31.19,4.61.26,6.92.26,15.43-.02,30.59-4.11,43.96-11.81l7.3-5.03c-.05,13.54,2.24,27,6.8,39.76,6.61,12.99,4.61,28.8-5.08,39.71-11.76,13.32-17.41,30.99-15.54,48.66.64,8.24-.5,16.54-3.35,24.33l-3.17,7.49c-4.44,10.51-9.97,23.62-13.51,30.17-3.31,6.24-5.43,6.54-10.3,6.66-9.43-.19-17.55-6.87-19.56-16.09l-6.45-28.84c4.98-1.46,9.52-4.16,13.18-7.87,11.83-12.21,11.69-31.96-.38-43.96-5.67-5.69-13.35-8.95-21.38-9.07-3.71,0-7.37.64-10.87,1.82l-30.54,8.6-12.35-38.65c-5.88-25.75-3.17-52.75,7.72-76.82,1.11-3.02,2.15-5.91,3.05-8.65l-12.83-4.37c-.92,2.65-2.01,5.46-2.98,8.36-11.91,26.79-14.74,56.76-8.03,85.3l12.52,39.31c-1.56.87-2.98,1.96-4.2,3.26-10.61-27.14-24.76-52.75-42.12-76.16l-10.37,8.83c17.98,24.71,32.53,51.73,43.25,80.34-23.76-16.35-48.99-30.43-75.38-42.05-23.62-10.42-48.05-18.97-73.02-25.56-13.3-3.5-26.34-6.21-39.09-8.43,19.39-32.98,48.35-59.34,83.03-75.54,2.6-1.32,4.2-2.24,4.49-2.39,16.32-8.2,33.26-15.12,50.65-20.72,56.22-21.4,118.25-22.25,175.06-2.39-9.73,3.31-18.99,7.87-27.52,13.61-7.75,4.94-16.65,7.77-25.82,8.2v11.67l.24,13.68c12,0,23.98-.9,35.86-2.69,8.62-2.95,16.87-6.94,24.54-11.88,4.63-2.55,9.64-4.37,14.83-5.34l-3.02-13.32c-6.69,1.28-13.13,3.69-19.04,7.09-6.66,4.3-13.8,7.82-21.28,10.42-5.39.9-10.82,1.39-16.28,1.51,6.21-1.72,12.12-4.37,17.5-7.91,18.35-13.39,41.5-18.5,63.8-14.08l12.73,2.93-50.27,34.54h0ZM1059.6,159.26c-3.43-.24-6.85-.28-10.28-.14-5.69-3.92-10.77-8.67-15.07-14.08-2.24-2.55-4.61-5.24-7.42-8.06,12.83,4.13,24.21,11.88,32.76,22.28h0ZM994.33,130.92c7.72,3.71,14.86,8.48,21.19,14.22-21.33-6.26-43.49-9.4-65.74-9.35v-.17c-25.8-.97-51.02-7.82-73.77-20.01,31.96-2.1,84.02-2.13,118.32,15.31h0ZM862.47,124.44c14.08,6.57,26.17,11.72,37.35,15.66-12.33,2.08-24.54,4.82-36.59,8.22v-.17c-26.95,6.52-55.28,4.51-81.05-5.74-8.03-2.36-15.8-4.58-22.75-5.83,29.79-21.9,69-26.5,103.04-12.14h0ZM753.81,149.46c8.34,1.42,16.56,3.45,24.61,6.02,12.45,3.9,25.16,6.94,38.03,9.07-7.82,3.33-15.31,6.71-22.13,10.2l-.28.17-2.93,1.56c-16.96,8.55-35.22,14.27-54.05,16.89-12.76,1.42-25.09,5.43-36.21,11.79.28-3.9.47-7.35.54-10.04.09-2.08-.26-4.13-1.02-6.05,13.75-17.72,38.27-41.6,53.36-39.61h.07ZM686.49,193.21c.69.07,1.2.66,1.18,1.37.02,29.08-6.97,57.73-20.36,83.53-.73,1.11-1.98,1.75-3.31,1.77-.71-.05-1.44-.09-2.17-.21-.07-2.53-.76-4.98-2.01-7.18l-5.06-8.6c-2.55-4.3-6.54-7.58-11.24-9.26l-10.46-84.28c-.35-2.81-.21-5.67.43-8.43,1.23.87,2.34,1.91,3.28,3.09,12.85,14.79,30.35,24.73,49.63,28.2h.09ZM694.24,69.03c-2.17,2.88-3.17,6.47-2.79,10.06.14,2.48.92,14.98,1.42,23.27l-6.69-2.24-8.46,14.08.19.57c-5.08.64-9,4.84-9.31,9.94v4.02c.09,1.46.09,2.93,0,4.39h-.14c-9.54-3.09-18.78-7.04-27.59-11.76-3.05-2.15-4.42-6-3.38-9.59l-13.13-3.5c-2.1,7.89.14,16.32,5.88,22.13l-2.39,18.4c-.59.28-1.13.61-1.65.99-9.9-4.44-18.26-11.72-24.02-20.88l-2.24-2.95c-2.74-3.66-5.81-7.09-9.12-10.25,14.55-1.54,27.76-9.28,36.24-21.24,2.39-5.65,6.83-10.18,12.4-12.73,3.5-1.61,6.21-4.61,7.46-8.24l.5-1.28c2.39-6.02,6.05-15.19,12.09-16.72l8.29-2.03c4.02-1.02,5.13-1.28,11.17-2.74,4.63.12,9.19,1.04,13.49,2.74,2.62.83,5.1,1.61,7.44,2.03-1.02,4.82-2.95,9.4-5.67,13.54h0ZM647.96,14.06c19.65,1.75,37.82,11.39,50.29,26.69l-1.32-.43c-6.57-2.74-13.72-3.78-20.81-3-6.14,1.46-7.2,1.72-11.34,2.81l-8.27,2.01c-2.74.71-5.31,1.94-7.61,3.61l-.4.28-.47.33c-10.42,6.71-22.35,10.68-34.7,11.57-5.57.61-10.37,1.2-14.53,1.8,1.58-3.12,2.79-6.4,3.59-9.8,3.5-21.85,23.39-37.56,45.45-35.88h.12ZM584.96,75.85c1.77-.33,12.21-2.36,30-4.28,6.83-.73,13.56-2.15,20.1-4.18l-.4.99c-.21.57-.4.8-.35.83-8.46,3.85-15.24,10.63-19.06,19.11-5.57,11.17-30.61,15.14-40.96,15.87-5.57-2.6-11.57-4.13-17.69-4.56,6-11.27,16.13-19.8,28.28-23.79h.09,0ZM458.33,79.66c-2.08.52-3.99,1.56-5.55,3l-10.63,10.04c-9.61-10.04-19.82-19.54-30.52-28.42-25.58-22.02-55.06-39.07-86.91-50.31,44.06-.59,86.31,17.72,115.98,50.29,6.02,5.81,11.83,10.8,17.5,15.4h.12ZM257.59,13.96c53.72,4.09,104.69,25.42,145.32,60.8,13.68,11.39,26.5,23.79,38.36,37.09l.14.21,28.18,29.65-8.98,9.35c-22.02-19.49-71.06-59.86-73.37-61.75-58.16-46.3-98.6-38.24-145.06-10.06l-1.16-14.55V30.5c.02-9.07,7.49-16.51,16.56-16.54h0ZM215.23,73.63l12.76-1.18.78,10.2c.09,2.27-.57,4.49-1.87,6.35-2.15,2.27-5.13,3.59-8.27,3.66-3.5.76-7.16.12-10.2-1.77-.92-.83-1.54-1.91-1.77-3.09-.52-11.91,6.43-13.89,8.57-14.17h0ZM208.88,105.69c2.2.52,4.46.8,6.73.8,1.49,0,2.95-.09,4.44-.26,5.24-.38,10.25-2.31,14.36-5.6l14.81-9.69c43.44-26.34,76.96-32.69,129.43,9.05.57.45,50.31,41.41,72.45,60.97l-7.87,8.22c-.35.45-.69.94-.99,1.46l-32.01-20.81c-73.25-45.09-118.02,7.09-137.15,29.39-2.39,2.76-4.35,5.08-5.93,6.64-7.37,7.23-12.26,4.37-13.8,3.09-22.46-22.96-37.89-51.85-44.48-83.27h0ZM289.24,222.12c-8.72-7.18-17.29-15.26-22.13-19.89,3.52-1.61,6.71-3.85,9.45-6.59,1.8-1.75,4.02-4.35,6.73-7.51,18.31-21.31,56.36-65.67,119.65-26.74l15.24,9.9c-8.5.45-16.7,3.38-23.55,8.43-10.77,9.14-17.67,22.04-19.25,36.07,0,.14-1.65,14.1-5.6,34.2-1.06,5.46-12.45,7.42-21.76,7.61-2.6-.14-5.1-.17-7.28-.17-4.04.17-8.01-1.09-11.22-3.54l-40.28-31.77h0ZM400.31,297.97c-13.63-3.8-24.61-14.01-29.41-27.33-.4-1.09-.92-2.15-1.54-3.12,6.9-2.2,12.14-7.87,13.75-14.93,4.04-20.76,5.69-34.63,5.81-35.36,1.23-10.35,6.26-19.84,14.08-26.72,8.81-5.88,19.75-7.72,30-5.03l6.64,1.18c.31,1.13.73,2.27,1.28,3.31l34.56,59.08c1.8,3.09,5.13,5.03,8.69,5.03.69,0,1.37-.07,2.03-.21,1.75-.35,3.38-1.18,4.7-2.39,1.35.14,3.05.35,4.89.61l-10.68,52.98-.26-.12c-12.12-5.43-26.22-4.42-37.44,2.74-7.87-1.54-30.28-6.09-47.1-9.73h0ZM429.36,375.38h.64c26.86,2.62,51.45,16.28,67.84,37.7-42.5,5.01-84.61,12.78-126.12,23.27-33.61,8.5-66.59,19.35-98.72,32.41-20.31,8.2-40.06,17.74-59.13,28.58l-3.14,1.84c2.95-11.81,7.35-23.2,13.06-33.92,51.87-97.02,204.05-89.98,205.56-89.88h0ZM144.2,499.35c-9.54-2.22-19.58.69-26.46,7.68-12.59,15.21-8.81,32.57-2.01,55.44.17.61,17.27,60.61-10.56,85.35-10.42,9.61-19.51,20.6-27,32.62-5.86,10.3-9.87,21.57-11.86,33.26-1.58,8.03-2.55,16.39-3.52,24.87-.66,16.42-4.65,32.55-11.72,47.39l-17.6,29.2c-.26-2.03-.12-4.09.43-6.05l.12-.38c11.03-22.98,14.39-48.92,9.57-73.96-3.92-14.39-2.08-29.76,5.13-42.8,2.57-3.66,5.65-7.8,8.95-12.28,21.45-29.1,50.88-68.93,43.11-99.99l-12.78-37.39c-4.75-13.72-1.35-29.03,8.76-39.47l-10.23-8.93c-13.3,14.06-17.69,34.42-11.39,52.72l12.66,36.94c6.02,24.24-22.28,62.6-41.01,87.97-3.4,4.58-6.52,8.79-9.12,12.54-9.33,15.73-12.05,34.56-7.56,52.32.54,4.51,1.04,9.09,1.42,13.75-.12-.24-.24-.5-.38-.73l-11.39-20.53c-9.14-16.58-7.98-37.04,2.98-52.46l12.52-17.5,2.98-4.16c.52-.71.9-1.49,1.37-2.22,21.78-31.98,30.61-57.17,25.89-75l-12.87-41.39c-5.5-16.87-.99-35.48,11.65-47.93l-10.51-8.67c-15.31,15.9-20.76,38.98-14.17,60.02l12.9,41.55c1.35,7.77.47,15.76-2.5,23.06-1.04-6.66-3.09-13.11-6.05-19.16l-23.81-48.09c-7.94-16.11-6.59-35.31,3.52-50.17,9.38-13.82,22.7-24.5,38.22-30.64,18.19-5.46,37.68-4.8,55.46,1.84,10.56,3.26,19.18,6.83,27.57,10.3,17.79,8.34,36.92,13.37,56.48,14.83-2.57,7.44-4.58,15.07-6.02,22.8-10.84-.9-34.18-3.09-51.17-6.54h0ZM240.98,1081.51h-110.46c-.69-.02-1.25-.52-1.32-1.2l-3.66-38.22,84.71-23.55,30.73,62.98h0ZM387.18,744.45c-18.12,6.64-40.46,14.88-69.54,26.46-100.37,39.92-121.25,135.28-125.36,181.68l-1.84-3.61c-6.76-17.86-8.6-37.2-5.29-56.01,5.29-40.06,26.2-76.46,58.13-101.22,43.32-29.06,88.18-55.82,134.34-80.13,30.47-12,62.6-19.25,95.27-21.47-21.52,30.71-31.84,34.56-85.7,54.38v-.07h0ZM541.92,672.14c-9.52.35-19.25.69-29.31,1.09-24.31,1.2-48.54,3.66-72.59,7.37,29.43-15.35,61.39-25.28,94.37-29.29v-13.68c-14.55.71-28.94,3.47-42.73,8.22,14.13-26.22,19.82-56.17,16.35-85.77l-13.46,1.68c0,.78,8.91,77.39-38.46,97.02-26.57,10.96-55.37,25.13-83.15,39.92-.47.24-1.02.45-1.49.66-68.41,36.52-130.25,76.56-136.42,81.33-34.72,26.88-57.47,66.4-63.28,109.94-3.85,21.66-1.56,43.96,6.57,64.39l18.73,36.4,7.11,14.53-75.26,20.91,6.31-17.81c2.2-6.21,1.65-13.09-1.49-18.9l-19.68-35.83c-9.24-19.94-4.13-34.2,5.13-59.98,2.53-7.06,5.31-14.88,8.15-23.72,13.89-43.3,29.39-109.11,29.67-110.46.64-5.27,3.94-9.85,8.74-12.09l59.27-27.73h.14l.28-.14h.14c35.36-14.65,54.35-53.91,43.84-90.71l-13.37,2.31c3.07,14.08,2.39,28.72-2.01,42.47-1.16-4.77-3.28-9.28-6.24-13.2-21.9-31.68-35.86-68.17-40.65-106.39,21.35-16.2,44.55-29.79,69.12-40.49,31.68-14.13,64.42-25.72,97.91-34.65,47.01-12.47,94.87-21.5,143.17-27.02,1.61,5.5,2.91,11.06,3.9,16.7l2.46,15.14c.64,3.99,2.81,7.56,6.05,9.97,2.57,1.84,5.67,2.86,8.86,2.86.85,0,1.7-.07,2.55-.21,7.32-1.2,12.76-7.61,12.76-15.02,0-.85-.07-1.68-.19-2.5l-1.11-6.83c-.05-.87.52-1.63,1.35-1.87.09-.02.19-.02.28-.02.78,0,1.46.59,1.56,1.35l1.11,6.83c.61,3.99,2.79,7.58,6.05,9.97,3.24,2.39,7.32,3.33,11.29,2.67,7.35-1.2,12.78-7.61,12.78-15.05,0-.83-.07-1.68-.21-2.5l-1.11-6.8c-.14-.87.47-1.72,1.35-1.89.43-.02.85.07,1.2.31.35.26.59.64.64,1.06l1.11,6.8c.59,4.04,2.76,7.65,6.05,10.06,3.24,2.41,7.32,3.38,11.31,2.67,8.22-1.39,13.89-9.28,12.54-17.53l-1.11-6.8c-.07-.45.05-.87.28-1.23.26-.35.64-.59,1.06-.66h.26c.8,0,1.49.57,1.61,1.37l1.11,6.78c.57,4.04,2.74,7.68,6.02,10.06.92.66,1.89,1.2,2.93,1.63l-11.43,102.09-15.85,54.69c-2.55,8.24-1.51,17.22,2.86,24.66,3.07,3.87,7.49,6.47,12.35,7.23-24.35,1.89-50.01,2.74-78.07,3.73v-.07h0ZM698.14,672.14l-44.88-15.69,23.76-55.75,34.2,11.69-13.09,59.74ZM750.91,662.08l-32.43,3.38c-1.65.14-3.33.19-5.01.14l3.09-14.1c6.52,2.17,12.8,4.04,18.45,5.86v.19h.24c6.35,1.91,11.83,3.52,15.66,4.63v-.09h0ZM1040.94,600.95c-1.91-3.14-4.42-5.88-7.37-8.06l-17.27-12.57c-2.41-2.01-4.94-3.85-7.58-5.53l-.31-.24-.33-.21c-23.31-14.2-49.96-22.04-77.27-22.68-62.81-2.86-78.47-27.17-78.71-27.43l-11.67,6.94c.71,1.25,18.59,30.85,89.79,34.11,14.17.59,28.2,3.07,41.74,7.37-40.72,8.76-82.75,9.52-123.78,2.24-14.27-3.12-27.05-11.03-36.21-22.44-4.16-5.22-35.95-43.35-35.95-43.35l-10.39,8.76s31.61,37.94,35.74,43.13c9.28,11.53,21.69,20.15,35.74,24.85-31.65,23.24-66.05,42.5-102.45,57.28-4.8-1.49-9.92-3.14-15.19-4.89l6.31-28.61,39.28-155.36,26.98,28.63c2.01,2.13,4.65,3.54,7.51,4.04.76.14,1.51.19,2.29.19,3.47.02,6.8-1.32,9.31-3.71l10.7-10.18c2.74-2.57,4.28-6.17,4.28-9.92,0-3.5-1.35-6.9-3.78-9.43l-32.6-34.61c14.48-2.01,36.02-4.7,49.3-5.76,32.1-1.96,64.32-.45,96.09,4.46,8.72,22.84,9.9,47.86,3.4,71.41-8.79-2.91-16.56-5.5-21.83-7.32-1.3-.47-2.62-.87-3.92-1.28-11.41-23.24-29.43-42.59-51.8-55.63l-7.09,11.65c16.84,9.97,31.11,23.76,41.67,40.25-11.08-1.56-22.3-1.94-33.45-1.16l1.2,13.61c16.49-1.2,33.07.64,48.92,5.41,23.55,8.27,95.46,30.94,96.21,31.18,18.45,5.86,34.75,17.06,46.82,32.2,10.39,16.2,21.71,31.8,33.9,46.7l18.33,22.58c3.76,3.99,6.8,8.57,9.05,13.56l11.43,25.63-32.03-10.61-13.37-4.44c-16.13-14.95-30.14-32.06-41.65-50.81h0ZM956.94,615.83l55.65,54.69c12.07,12.73,28.89,29.81,46.82,45.97-17.86-13.89-36.64-26.53-56.22-37.87l-55.42-52.8,9.17-9.99h0ZM1131.7,883.68c7.77-11.13,11.22-24.73,9.69-38.22,3.94,1.87,8.24,2.93,12.61,3.09,1.16,0,2.34-.12,3.47-.33,5.83-1.06,10.72-5.01,13.02-10.46,5.03-10.61,7.54-17.27,7.63-17.55l-12.69-4.77s-2.41,6.43-7.18,16.44c-1.06,2.24-2.15,2.72-3.19,2.93-6.61,1.16-20.72-8.69-28.16-15.8-3.07-3.28-6.33-6.38-9.76-9.26l-90.9-78.99c-9.76-7.84-28.51-27.38-24.5-37.06,37.68,22.23,71.81,50.01,101.24,82.39l1.49,1.32c2.46,1.58,5.31,2.46,8.24,2.46,8.29,0,15.12-6.83,15.12-15.12,0-1.51-.24-3.02-.69-4.46-2.55-8.2-7.98-15.19-15.26-19.7-33.76-24.28-64.89-52.06-92.83-82.84-.9-.97-1.39-2.27-1.39-3.59,0-2.72,2.13-5.01,4.84-5.22,4.65-.19,9.31.5,13.72,2.03,10.06,3.21,24.5,8.03,39.61,12.99l15.85,5.24c19.32,6.4,37.54,12.45,47.43,15.57,2.01.38,47.13,9.66,44.88,45.31-1.02,18.71-4.39,37.2-10.06,55.06l12.85,4.35c5.91-18.31,9.47-37.28,10.68-56.48v-.28c.52-7.32.71-14.08.71-19.96,17.39,25.98,20.83,58.94,9.17,87.92-1.89,3.92-5.22,6.99-9.28,8.6l5.01,12.69c7.7-3,13.87-9,17.06-16.63,1.13-3.24,2.01-6.4,2.91-9.52,2.46,4.58,4.63,9.14,6.64,13.65,14.48,38.95-1.16,79.54-42.02,108.66-8.03,6.07-18.35,8.27-28.16,6.05-15.83-4.58-30.09-13.46-41.17-25.65,5.67-3.68,10.3-8.79,13.37-14.83h0ZM1086.01,738.81c6.52,5.01,12.9,9.54,19.02,13.35,4.35,2.79,7.61,7.02,9.21,11.95.26.59.05,1.3-.52,1.65-.31.31-.76.43-1.18.33-8.27-9.64-17.13-18.73-26.53-27.28ZM481.52,993.99c-2.88-4.98-8.2-8.06-13.94-8.06-7.28,0-13.7,4.94-15.57,11.95-1.11,4.28-.47,8.83,1.82,12.61l6.52,10.06c11.74,18.17,6.61,42.76-11.41,54.71-17.88,11.72-42.24,6.76-54.09-11.03l-16.68-30.8c-3.14-5.93-9.31-9.66-16.02-9.66s-13.11,3.87-16.18,9.99l-13.49,33.02c-3.59,8.95-12.31,14.83-21.94,14.83-6.92-.05-13.51-2.91-18.24-7.96-4.02-4.28-6-10.09-5.46-15.92l-.09-17.1c0-1.13-.24-27.54-21.45-33.05l-10.06-2.79c-2.24-.47-2.01-1.39-2.01-2.2.28-1.58,3.07-2.48,6.85-2.22,8.22.07,16.23,2.62,22.96,7.32l6.05,3.59,3.4-6.05c5.5-9.97,11.55-19.63,18.12-28.91,2.36-3.28,4.25-2.01,5.06-1.46,2.53,1.75,1.37,4.65.4,6.33-5.67,9.71-16.98,32.53-17.36,33.31-1.3,2.55-2.1,5.34-2.36,8.2-.02.45-.05.9-.05,1.35,0,8.91,7.32,16.25,16.23,16.25,1.54,0,3.05-.24,4.51-.64,4.58-1.75,8.39-5.1,10.7-9.43.45-.73,11.2-17.88,19.87-34.51,3.35-7.11,10.68-11.55,18.54-11.22,14.43.64,27.76,7.96,36.05,19.8l12.07,18.97,11.41-7.37-11.74-18.35-.66-.99-8.98-13.98c-4.65-7.23-6.4-15.94-4.89-24.4,3.8-12.14,12.59-22.13,24.17-27.45,33.14-19.04,52.18.94,75.47,31.25,2.76,3.64,5.43,7.09,8.06,10.25,10.54,12.83,18.83,18.54,26.91,18.54,7.13-.78,13.51-4.89,17.17-11.08,2.41-2.2,3.78-5.29,3.78-8.53,0-3.52-1.61-6.85-4.37-9.05-2.55-2.53-6.09-3.8-9.69-3.45-3.43.43-6.52,2.17-8.67,4.84l-7.23,8.17c-2.69-2.55-5.2-5.29-7.54-8.17-2.48-3.02-5.06-6.38-7.75-9.85-3.83-5.01-8.06-10.54-12.8-15.92,11.41-16.23,30.05-25.94,49.89-25.98,15.76-.26,30.83,6.47,41.15,18.35,10.7,12.69,16.44,28.84,16.11,45.43,4.02,31.54-16.02,61.54-46.7,69.87-25.58,7.56-52.16-20.13-64.09-34.8-2.15-2.69-4.28-5.48-6.38-8.41l-.09-.14-5.29-8.08h0ZM1206.48,967.18c-37.94,53.13-115.56,48.17-158.43,31.87-4.28-1.63-8.31-2.98-12.21-4.04l7.02-12.66c8.93-13.98,12.35-30.78,9.54-47.13-3.97-15.12-14.24-27.83-28.18-34.89l-6.78,11.81c10.58,5.24,18.45,14.76,21.64,26.15,1.94,12.87-.85,26.03-7.87,37.02l-37.09,66.99,7.77,9.9c16.04-5.74,33.85-3.83,48.28,5.22,14.1,10.63,29.86,18.83,46.68,24.24h-114.71c-7.87.47-15.33-3.71-19.06-10.65l-18.66-24.68c-6.21-8.36-5.57-15.12-1.75-27.17l19.75-64.75-12.94-4.02-19.8,64.54c-.54,1.68-1.02,3.33-1.49,5.03-48.57,20.01-114.47-5.48-115.54-5.88-4.7-1.44-9.47-2.65-14.31-3.61,3.87-7.96,6.5-16.49,7.75-25.23,3.33-27.33-7.42-54.57-28.51-72.26-46.75-36.35-94.56.17-113.34,24.57l10.72,8.39c1.89-2.46,46.61-59.24,94.35-22.13,17.32,14.76,26.08,37.28,23.31,59.86-3.66,23.27-18.31,43.42-39.35,54.02-2.6.85-5.13,1.89-7.54,3.17l5.55,12.43c2.53-.9,4.91-1.89,7.18-2.98,12.8-4.3,26.95-1.87,37.56,6.52,13.49,10.39,28.46,18.71,44.41,24.71h-124.28c-9.26.14-17.74-5.34-21.43-13.84-3.97-8.41-2.55-18.43,3.61-25.39l18.09-20.95c2.83-2.79,10.96-13.61,10.96-46.3h-13.58c.87,11.88-1.06,23.81-5.62,34.8-6.35,7.46-14.17,13.54-23.01,17.81-43.09,21.4-99.66,49.28-140.27,32.43,1.18,0,2.34.28,3.52.28,4.32,0,8.62-.61,12.78-1.84,36.35-10.25,60.28-45.47,56.46-83.06,0-7.58-.97-15.12-2.86-22.46l55.28-67.39c14.88-15.83,34.65-26.22,56.15-29.48,35.48-6.05,246.43-33.47,249.12-33.85.57-.12,58.7-12.28,85.89,24.97l8.76,12.07,4.25,5.83c2.01,3.35,39.61,63.64,82.51,72.43,3.43.71,6.92,1.09,10.44,1.09,10.18-.02,20.08-3.31,28.25-9.38,21.38-14.31,37.89-34.77,47.41-58.65-1.91,35.17-14.62,68.91-36.4,96.57h0ZM1246.1,923.41l16.3,15.66-10.06,10.7-12.31-11.83c2.15-4.65,4.16-9.52,6.07-14.53h0ZM1265.94,978.12c-5.15,0-9.4-4.18-9.47-9.33-.05-1.84.47-3.68,1.49-5.24l18.35-19.35c1.61-1.11,3.47-1.7,5.41-1.7,5.22,0,9.5,4.3,9.5,9.5,0,2.46-.94,4.8-2.62,6.57l-15.8,16.61c-1.8,1.89-4.28,2.93-6.85,2.95ZM1290.32,1004.06l-7.63-19.54,15.64-16.46,19.75,6.73,59.67,85.25-87.43-55.98h0ZM995.54,277.63l24.68,16.2,7.42-11.41-17.17-11.29c7.75-.24,15.47.64,22.98,2.6l3.26-13.25c-12.17-3.35-24.92-3.9-37.35-1.61-4.25.92-7.54,4.35-8.31,8.62-.71,3.94,1.09,7.96,4.49,10.09v.05h0Z"/>
      <path class="cls-1" d="M1509.2,884.41c0-129.85,95.79-231.43,253.23-231.43,48.4-.66,96.59,6.52,142.7,21.21l3.21,101.57h-15.4c-12.87-59.13-30.85-104.13-133.72-104.13-116.32,0-177.38,87.4-177.38,198.59,0,127.28,71.34,212.1,192.83,212.1,23.76,1.35,47.46-3.5,68.76-14.08v-140.17l-67.49-14.79v-12.83h178.68v12.83l-47.53,14.08v141.43c-48.73,21.24-101.17,32.6-154.3,33.45-146.53.05-243.59-81.59-243.59-217.84h0ZM2015.61,1095.22v-12.87l51.43-12.85v-250.65l-51.43-12.87v-12.83h156.19v12.85l-51.43,12.85v250.65l51.43,12.85v12.87h-156.19ZM2241.2,944.81c-.05-1.44-.07-2.88-.07-4.32,0-85.18,70.11-155.29,155.31-155.29,2.67,0,5.34.07,8.01.21,104.13,0,165.85,67.51,165.85,159.4s-68.81,158.13-163.28,158.13c-97.06.07-165.83-59.81-165.83-158.13h0ZM2509.88,951.24c0-76.46-36-149.1-107.98-149.1-66.87,0-100.28,58.46-100.28,137.53s35.98,146.55,107.95,146.55,100.3-59.76,100.3-134.98h0ZM2640.27,1095.22v-12.87l51.43-12.85v-250.65l-51.43-12.87v-12.83c75.85,0,118.89-2.01,139.49-2.01h13.49c62.39,0,99.61,27.61,99.61,76.46-.05,34.28-22.11,64.91-54.61,75.83,20.48,36.87,44.36,71.72,71.34,104.13,13.96,21.64,37.89,34.91,63.64,35.34v12.21h-86.15c-35.74-40.16-66.99-84.12-93.19-131.1l-3.85-6.45c-15.33-.45-30.59-2.17-45.64-5.13v116.98l51.43,12.85v12.85l-155.55.12h0ZM2840.18,870.24c0-41.76-27.66-65.53-75.87-65.53-5.15,0-14.76,0-19.91.64v136.82c3.85,0,11.6.66,15.4.66,49.54.05,80.39-22.44,80.39-72.59ZM3007.19,948.03c0-91.3,68.79-161.34,182.55-161.34,35.15-.52,70.13,4.91,103.46,16.11l2.57,72.64-16.11.64c-7.72-41.79-24.45-71.98-92.55-71.98-77.15,0-118.94,57.19-118.94,133.04,0,89.36,48.31,148.46,129.83,148.46,14.95.43,29.83-2.22,43.72-7.72v-98.36l-48.28-10.28v-12.21h142.04v11.57l-39.85,10.28v99.61c-35.48,15.35-73.61,23.69-112.25,24.52-106.09,0-176.15-59.22-176.15-154.94l-.05-.05h0ZM3397.92,1095.22v-12.87l51.43-12.85v-250.65l-51.43-12.87v-12.83h156.19v12.85l-51.43,12.85v250.65l51.43,12.85v12.87h-156.19ZM3623.51,944.81c-.05-1.44-.07-2.88-.07-4.32,0-85.2,70.11-155.29,155.29-155.29,2.67,0,5.34.07,8.01.21,104.13,0,165.85,67.51,165.85,159.4s-68.81,158.13-163.28,158.13c-97.02.07-165.78-59.81-165.78-158.13h-.02,0ZM3892.17,951.24c0-76.46-36-149.1-107.98-149.1-66.85,0-100.28,58.46-100.28,137.53s35.98,146.55,107.98,146.55,100.3-59.76,100.3-134.98h-.02ZM4163.82,879.26c0-133.7,100.91-226.28,250.68-226.28,45.87-.78,91.54,6.4,134.95,21.21l2.6,100.91h-14.08c-12.21-52.04-23.79-102.83-125.98-102.83s-175.49,73.91-175.49,197.95c0,131.76,79.06,214.68,182.55,214.68,94.58,0,114.4-59.1,131.1-109.89l14.79,1.28-17.98,100.91c-43.35,17.91-89.95,26.65-136.84,25.72-149.24.07-246.31-88.09-246.31-223.68h0ZM4634.89,1095.22v-12.87l51.43-12.85v-250.65l-51.43-12.87v-12.83h156.28v12.85l-51.43,12.85v250.65l51.43,12.85v12.87h-156.28ZM5154.18,1106.79c-17.98-23.13-48.28-55.28-75.19-87.43l-95.13-108.66c-21.21-25.06-36-44.27-45-56.55h-1.28c.64,53.34,0,214.04,0,214.04l58.46,14.08v12.85h-129.17v-12.85l47.55-14.08,2.57-249.4-53.36-12.85v-12.8h91.28c5.15,7.72,19.28,26.36,57.21,71.34l80.36,91.94c20.55,25.06,39.21,46.28,57.19,68.1h1.28c0-52.7-.61-167.76-.61-204.38l-54-14.08v-12.92h122.74v12.85l-46.28,14.08c0,36-1.28,196.68-1.28,250.04v36.64l-17.36.05h0ZM5276.94,1095.22v-12.87l51.4-12.85v-250.65l-51.4-12.87v-12.83h156.14v12.85l-51.43,12.85v250.65l51.43,12.85v12.87h-156.14ZM1920.65,787.3c-.02-.17-.02-.35-.02-.52,0-6.33,5.22-11.55,11.57-11.55,3,0,5.57,3,13.72,10.28,5.57,5.13,8.98,7.28,13.28,7.28,9.85,0,18.4-15.43,30.85-57.43,7.7-25.72,14.98-52.32,59.55-207.8h-33.43l3.45-11.6,33.83-.85,11.6-35.98c7.68-30.31,24.26-57.64,47.55-78.5,13.98-11.22,31.35-17.41,49.28-17.55,20.55,0,34.2,7.7,34.2,14.08-1.42,8.29-8.29,14.65-16.68,15.43-3.02,0-6.45-3.43-9.45-5.57-7.7-6.59-17.32-10.49-27.43-11.15-8.95.83-16.94,5.95-21.43,13.72-9.78,18.64-17.41,38.34-22.72,58.68l-13.7,47.15h42.85l-3.85,12.43h-42.87l-35.06,118.39c-9.21,34.98-20.67,69.33-34.3,102.83-16.28,33.45-36.4,53.6-65.53,53.6-14.15.07-25.28-5.95-25.28-15.35h0ZM2130.58,637.33c0-51.85,45-138.43,107.13-138.43.69-.02,1.37-.05,2.06-.05,27.07,0,49.35,22.28,49.35,49.35,0,2.15-.14,4.3-.43,6.43,0,49.25-43.25,137.95-107.1,137.95-.97.05-1.94.09-2.91.09-26.65,0-48.57-21.94-48.57-48.59,0-2.27.17-4.51.47-6.76h0ZM2260.4,536.72c0-20.6-9.85-27.87-21.85-27.87-37.28,0-80.13,105.43-80.13,148.25,0,18.45,8.57,27.87,21.4,27.87,35.67-.07,80.57-99.5,80.57-148.35v.09ZM2429.21,685.37c8.17-26.03,18.05-51.5,29.57-76.25l15.87-38.57c7.02-14.08,12.07-29.08,14.98-44.55,0-5.57-2.13-10.72-8.06-10.72-14.57,0-35.13,18.87-61.28,51.43-25.28,34.46-46.04,72-61.77,111.73l-4.72,10.7-27.43,2.17-2.15-2.6c8.06-21,36.85-101.13,51.43-142.68,2.57-7.28,4.72-14.57,7.28-21.87.43-2.01-1.28-4.68-3.43-4.28-15.38,7.87-28.96,18.83-39.85,32.2l-6.43-7.28c13.7-16.72,39.87-48,68.13-48,9,0,14.1,4.3,14.1,11.13-3.83,20.53-10.46,40.44-19.7,59.17-7.72,18.4-8.06,19.7-11.55,27.83l2.1.45c23.57-38.24,68.15-97.7,110.15-97.7,15.43,0,26.57,7.28,26.57,22.28-2.76,19.23-8.55,37.87-17.17,55.28l-26.15,60.38c-5.15,11.95-9.87,22.68-13.3,32.55.21,1.42,1.2,2.6,2.57,3,16.37-9.12,31.13-20.83,43.72-34.72l7.28,6.05c-18,24.43-50.57,49.72-79.7,49.72-6.78-.02-11.08-3.05-11.08-6.9v.07h0ZM2554.74,658.82c0-64.7,74.13-158.1,135.8-158.1,9.43-.07,18.61,2.95,26.17,8.57l33.45-108.85-26.17-11.57v-6.05l61.72-.4,2.57,2.13-23.57,68.13-41.57,123.85c-20.67,61.65-28.72,86.93-29.57,91.65,0,1.65,1.37,3.02,3.02,3.02.14,0,.26-.02.4-.02,19.02-10.65,35.74-24.92,49.28-42l7.3,5.57c-15,23.13-51.45,57.43-79.3,57.43-6.14.5-11.74-3.8-12.83-9.87,1.72-10.02,4.61-19.8,8.55-29.15l12.35-35.08-1.72-.45c-24.43,36.43-61.25,74.57-97.25,74.57-17.53-.02-28.63-10.32-28.63-33.47v.09h0ZM2651.99,637.4c26.57-29.57,52.32-72,52.32-104.13,0-15-6.45-22.28-15-22.28-33,0-101.57,95.98-101.57,144.4,0,11.57,5.15,17.55,13.3,17.55s25.25-8.6,50.95-35.62v.07h0ZM2876.92,683.27c3.43-13.02,7.72-25.8,12.87-38.24l8.03-22.72-1.7-.43c-24.85,36-70.7,69.85-98.13,69.85-.31.02-.64.02-.94.02-12.78,0-23.29-10.51-23.29-23.29,0-1.09.07-2.2.24-3.28,4.3-30.5,16.58-59.31,35.57-83.55,35.13-50.57,75.4-74.57,104.98-74.57,7.46-.38,14.81,2.08,20.57,6.85l8.57-21.43,25.68-.43,4.3,3-38.91,102.9c-8.57,23.13-18.43,50.55-24.87,69.4-.4,1.7,1.32,4.28,3.45,3.85,18.66-10.06,35.01-23.93,48-40.7l7.28,6.05c-18.43,26.15-50.98,55.7-79.25,55.7-5.76.35-11.03-3.47-12.45-9.07v.09h0ZM2867.07,640.82c24.05-24.52,42.33-54.07,53.55-86.53l5.17-15.85c-1.84-10.58-10.75-18.59-21.47-19.3-34.68,0-92.1,84-92.1,135.83,0,8.6,3,16.3,9.85,16.3,17.27-6.33,32.72-16.82,45-30.52v.07h0ZM3076.14,697.82l-5.57-6.43c-13.72-15.85-25.28-25.3-36-25.3-14.1,0-22.28,17.57-25.28,23.57-12.07,0-15.87-5.15-15.87-11.15,0-6.4,31.28-38.22,60-65.98,24-23.55,47.57-47.15,72.43-72.43l-1.28-3.43c-12.97-1.23-25.7-4.39-37.7-9.45-9.17-3.76-18.85-6.07-28.7-6.83-.26-.02-.5-.02-.76-.02-7.16,0-13.06,5.88-13.06,13.06,0,.5.02,1.02.09,1.51.19,5.55,1.65,10.96,4.28,15.85l2.57,5.15c-3.14,5.72-9.38,9.07-15.87,8.55-.24,0-.47.02-.71.02-7.13,0-13.02-5.88-13.02-13.02,0-.24.02-.47.02-.71,2.5-11.98,8.88-22.82,18.12-30.85,9.97-12.97,25.2-20.81,41.55-21.43,9.64.19,19.11,2.36,27.85,6.43l12.07,5.13c7.51,3.76,15.64,6.07,23.98,6.87,9.87,0,16.7-12.07,23.15-21.43,3.87-.43,14.08,3.43,15.43,8.03-5.57,6.43-24,24.02-45.85,45.43l-36.19,34.84c-21.83,21-47.13,47.15-62.98,64.72l1.3,2.55c4.37-1.65,9-2.53,13.7-2.55,14.01,1.49,26.76,8.81,35.15,20.13l7.68,8.06c9.45,10.28,21.02,23.1,34.2,23.1,9.5.05,17.39-7.63,17.6-17.13-.9-6.97-3.57-13.61-7.72-19.28l-2.57-3.85c1.75-6.19,7.68-10.32,14.08-9.87,8.46.64,15.09,7.77,15.09,16.25,0,.59-.05,1.16-.09,1.75-2.32,15.85-11.81,29.76-25.72,37.7-9.59,6.64-20.62,10.89-32.2,12.45-13.56-1.25-25.82-8.67-33.19-20.13v.07h0ZM3211.07,682.82c4.3-17.41,10.35-34.35,18-50.57l22.28-53.55c7.75-19.3,15.43-38.57,21-54.85.02-.14.02-.31.02-.45,0-1.68-1.37-3.07-3.07-3.07-.28,0-.54.02-.83.09-14.79,7.94-28.02,18.54-38.98,31.25l-6.4-6.83c20.55-26.17,44.98-48.43,71.55-48.43,7.7,0,13.7,3,13.7,10.7-1.98,12.47-5.74,24.59-11.13,36l-26.17,63c-8.03,20.1-18.09,44.15-24.43,62.13v.07c0,1.61,1.32,2.93,2.95,2.93h.05c18.35-9.78,34.54-23.2,47.57-39.43l6.85,6.85c-15.85,21.43-47.13,53.57-78.85,53.57-6.85-.07-14.13-3.52-14.13-9.52v.09ZM3295.59,412.44c.24-11.91,9.57-21.78,21.4-22.7.45-.05.87-.07,1.32-.07,8.93,0,16.28,7.35,16.28,16.3,0,.28,0,.59-.02.9.24,12.21-9.21,22.63-21.4,23.55-.57.07-1.13.09-1.7.09-8.83,0-16.09-7.28-16.09-16.11,0-.69.05-1.37.12-2.06l.09.09h0ZM3345.67,637.4c0-51.85,45-138.43,107.13-138.43.69-.02,1.37-.02,2.06-.02,27.07,0,49.37,22.28,49.37,49.35,0,2.15-.14,4.28-.43,6.4,0,49.25-43.28,137.95-107.13,137.95-.99.07-1.98.09-2.98.09-26.67,0-48.59-21.92-48.59-48.57,0-2.29.17-4.58.5-6.85l.07.07h0ZM3475.5,536.79c0-20.57-9.83-27.87-21.85-27.87-37.25,0-80.1,105.43-80.1,148.28,0,18.43,8.55,27.85,21.4,27.85,35.48-.14,80.48-99.57,80.48-148.42l.07.17ZM3644.3,685.44c8.17-26.03,18.07-51.5,29.6-76.23l15.85-38.57c7.04-14.1,12.07-29.08,15-44.55,0-5.57-2.15-10.75-8.06-10.75-14.57,0-35.13,18.87-61.28,51.43-25.3,34.44-46.11,71.95-61.87,111.66l-4.72,10.7-27.43,2.17-2.15-2.6c8.06-21,36.87-101.13,51.43-142.68,2.55-7.28,4.72-14.57,7.3-21.87.4-2.01-1.32-4.68-3.45-4.28-15.38,7.87-28.96,18.83-39.87,32.2l-6.4-7.28c13.7-16.72,39.85-48,68.13-48,9,0,14.08,4.3,14.08,11.13-3.83,20.53-10.46,40.44-19.7,59.17-7.72,18.4-8.06,19.7-11.55,27.83l2.13.45c23.55-38.24,68.13-97.7,110.13-97.7,15.43,0,26.57,7.28,26.57,22.28-2.76,19.2-8.55,37.87-17.15,55.28l-26.17,60.38c-5.13,11.95-9.85,22.68-13.28,32.55.21,1.42,1.2,2.57,2.57,3,16.37-9.12,31.13-20.83,43.7-34.72l7.3,6.05c-18,24.43-50.57,49.72-79.7,49.72-6.78-.02-11.13-3.05-11.13-6.9l.12.14h0ZM3775.38,647.34c0-80.13,74.98-148.68,118.28-148.68,1.13-.17,2.29-.24,3.43-.24,14.03,0,25.61,11.48,25.7,25.51-1.16,18.59-12.09,35.24-28.68,43.7-21.87,8.86-44.2,16.58-66.85,23.15l-9,2.98c-5.03,15.09-7.91,30.8-8.57,46.7,0,16.72,5.13,31.28,20.55,31.28,21.59-4.39,40.94-16.39,54.43-33.83l6.45,6.85c-18.24,26.83-47.43,44.27-79.72,47.57-23.65-.17-36.07-19.46-36.07-45.17l.07.17h0ZM3874.38,561.19c14.53-7.84,24.21-22.51,25.7-38.98,0-7.28-3-13.72-12.4-13.72-21.43,0-54.43,44.15-65.57,75.43,18.31-5.34,35.86-13.02,52.18-22.89l.09.17h0Z"/>
      <g>
        <path class="cls-1" d="M4734.36,642.12c0-30.69,22.39-52.89,54.19-52.89,34.58,0,55.06,22.42,55.06,52.89s-22.82,52.49-54.21,52.49-55.04-19.84-55.04-52.49ZM4823.56,644.27c0-25.39-11.95-49.51-35.88-49.51-22.16,0-33.26,19.44-33.26,45.66s11.95,48.66,35.86,48.66,33.28-19.84,33.28-44.81Z"/>
        <path class="cls-1" d="M4978.97,695.91c-5.95-7.7-15.99-18.33-24.94-29.03l-31.61-36.05c-7.04-8.36-11.93-14.72-14.93-18.78h-.4c.19,17.72,0,71.06,0,71.06l19.39,4.68v4.28h-42.9v-4.28l15.8-4.68.85-82.77-17.72-4.28v-4.28h30.31c1.7,2.55,6.4,8.76,18.99,23.67l26.67,30.54c6.83,8.27,13.02,15.31,18.97,22.61h.45c0-17.5-.21-55.72-.21-67.87l-17.93-4.68v-4.28h40.77v4.28l-15.38,4.68c0,11.95-.43,65.31-.43,82.98v12.19h-5.76,0Z"/>
        <path class="cls-1" d="M5128.21,692.27c-10.89,0-21.97-.21-30.31-.21h-58.04v-4.28l17.06-4.28v-83.17l-17.06-4.28v-4.28h53.13v4.28l-18.33,4.28v86.2c27.31-.66,36.02-1.3,39.47-1.91,6.83-1.11,9.8-8.76,12.59-16.89l2.1-5.74h4.94l-5.55,30.28Z"/>
        <path class="cls-1" d="M5180.77,662.41v-62.08l-13.04-4.28v-4.28h46.54v4.28l-15.8,4.28v62.08c0,16.63,8.34,25.37,25.18,25.37,17.72,0,28.37-7.87,28.37-27.31v-59.53l-16.61-4.89v-4.28h37.54v4.06l-13.23,5.1v59.1c0,24.57-13.87,34.56-39.05,34.56-23.27,0-39.9-7.23-39.9-32.2h0Z"/>
        <path class="cls-1" d="M5317.57,687.74l-2.36-25.35h6.02c1.28,8.81,6.87,25.98,27.73,25.98,15.05,0,21.5-7.94,21.5-18.02,0-10.75-9.9-15.9-23.43-22.16l-8.39-3.87c-13.56-6.26-21.07-13.77-21.07-27.31,0-16.13,13.98-28.16,37.39-28.16,11.86,0,22.18,2.57,26.69,4.3l1.28,23.65h-5.39c-.85-7.72-5.36-22.11-24.07-22.11-13.75,0-19.77,6.4-19.77,15.21,0,9.26,5.6,14.2,20.86,21.07l9.02,4.09c16.32,7.3,23.62,15.92,23.62,28.42,0,18.02-13.09,30.09-38.88,30.09-14.41,0-26.67-3.66-30.76-5.83h0Z"/>
      </g>
    </g>
  </g>
</svg>