<?xml version="1.0" encoding="UTF-8"?>
<svg id="Layer_2" data-name="Layer 2" xmlns="http://www.w3.org/2000/svg" viewBox="0 0 552.18 314.59">
  <defs>
    <style>
      .cls-1 {
        stroke-width: 0px;
      }
    </style>
  </defs>
  <g id="Layer_1-2" data-name="Layer 1">
    <path class="cls-1" d="M552.18,193.97v46.8h-192.12s-34.59-.34-54.09-19.84-9.5-36.29-36.29-36.29-55.79,30.86-73.25,55.45c-3.39-.85-3.9-3.9-3.9-3.9,0,0,34.12-99.88,95.64-99.88,11.02,0,20.52-.68,30.69,31.2,3.72,11.65,19.84,28.96,55.28,26.79,48.67,0,178.05-.34,178.05-.34Z"/>
    <path class="cls-1" d="M0,24.03L24.88.48s3.42-1.79,5.37,1.55,2.73,127.88,3.58,170.46c.16,7.73,3.99,22.22,21.49,22.22,26.23,0,51.68.12,97.51,0,1.04,0,1.88,0,2.37,0,12.6,0,20.99,15.44,19.54,35.41-2.36,32.56-4.56,38.5-4.56,38.5,0,0-3.29-27.26-23.61-27.19-5.06.02-8.49-.08-37.26-.1-1.34,0-.64,0-3.62,0-20.31-.04-33.17-.17-54.95-.05-1.86-.1-2.49-.38-3.33-.5-6.45-1.65-13.9-4.54-22.29-12.77-8.86-8.69-16.62-23.11-16.62-47.3C8.52,128.94,0,24.03,0,24.03Z"/>
    <path class="cls-1" d="M133.27,111.76l-21.56,31.31,34.64,25.87s12.84-16.08,19.5-24.7c.31-.4,1.3-2.37.14-5.04-3.34-7.67-32.72-27.45-32.72-27.45Z"/>
    <path class="cls-1" d="M479.03,266.37l-18.24,26.19,28.53,22.03s18.48-12.9,18.36-22.19c-.04-3.43-1.22-4.01-3.01-5.71-5.25-4.97-25.64-20.32-25.64-20.32Z"/>
  </g>
</svg>